<?xml version="1.0" encoding="UTF-8" standalone="no"?>
<!-- Created with Inkscape (http://www.inkscape.org/) -->

<svg
   width="90"
   height="90"
   viewBox="0 0 23.812499 23.8125"
   version="1.1"
   id="svg5"
   xml:space="preserve"
   inkscape:version="1.2.2 (b0a8486541, 2022-12-01)"
   sodipodi:docname="icon.svg"
   inkscape:export-filename="osu.Game.Rulesets.Katsudon/Resources/Textures/KatsudonIcon.png"
   inkscape:export-xdpi="96"
   inkscape:export-ydpi="96"
   xmlns:inkscape="http://www.inkscape.org/namespaces/inkscape"
   xmlns:sodipodi="http://sodipodi.sourceforge.net/DTD/sodipodi-0.dtd"
   xmlns="http://www.w3.org/2000/svg"
   xmlns:svg="http://www.w3.org/2000/svg"><sodipodi:namedview
     id="namedview7"
     pagecolor="#505050"
     bordercolor="#666666"
     borderopacity="1.0"
     inkscape:showpageshadow="2"
     inkscape:pageopacity="0"
     inkscape:pagecheckerboard="0"
     inkscape:deskcolor="#d1d1d1"
     inkscape:document-units="mm"
     showgrid="true"
     inkscape:zoom="7.1471985"
     inkscape:cx="44.003255"
     inkscape:cy="37.567167"
     inkscape:window-width="1920"
     inkscape:window-height="1022"
     inkscape:window-x="0"
     inkscape:window-y="0"
     inkscape:window-maximized="1"
     inkscape:current-layer="layer1"><inkscape:grid
       type="xygrid"
       id="grid132"
       visible="false" /></sodipodi:namedview><defs
     id="defs2" /><g
     inkscape:label="Layer 1"
     inkscape:groupmode="layer"
     id="layer1"><ellipse
       style="fill:none;stroke:#ffffff;stroke-width:2.06964;stroke-linecap:round;stroke-linejoin:round;stroke-dasharray:none;paint-order:markers fill stroke"
       id="path368"
       cx="11.90625"
       cy="11.906247"
       rx="10.606851"
       ry="10.606849" /><path
       id="path1025"
       style="color:#000000;fill:#ffffff;stroke-linecap:round;stroke-linejoin:round;-inkscape-stroke:none;paint-order:markers fill stroke;stroke:none"
       d="M 9.7890666 5.2911499 C 7.025228 5.2911499 4.7614665 7.5543954 4.7614665 10.318233 C 4.7614665 12.372249 6.0120066 14.150077 7.7886719 14.927771 C 7.7134745 14.548606 7.6739502 14.157523 7.6739502 13.757817 C 7.6739502 13.314499 7.7230241 12.881845 7.8150269 12.464355 C 7.2381048 11.934442 6.87865 11.172452 6.8786499 10.318233 C 6.8786499 9.073032 7.641757 8.0235088 8.7302165 7.604187 L 8.7302165 10.351306 C 9.2737018 9.5551853 10.00035 8.8919914 10.8474 8.4248088 L 10.8474 7.604187 C 11.135353 7.7150638 11.400154 7.8705021 11.634432 8.0615234 C 12.296918 7.8112943 13.012584 7.6739502 13.757817 7.6739502 C 13.860152 7.6739502 13.962054 7.6765913 14.063224 7.6817017 C 13.174499 6.2500408 11.58805 5.2911499 9.7890666 5.2911499 z " /><circle
       style="fill:none;stroke:#ffffff;stroke-width:2.11667;stroke-linecap:round;stroke-linejoin:round;stroke-dasharray:none;paint-order:markers fill stroke"
       id="circle1083"
       cx="13.758333"
       cy="13.758333"
       r="3.96875" /><path
       style="fill:none;stroke:#ffffff;stroke-width:2.11667;stroke-linecap:butt;stroke-linejoin:miter;stroke-dasharray:none;stroke-opacity:1"
       d="M 13.758333,9.7895826 V 17.727083"
       id="path1085" /></g></svg>
